#!OML:ASF F:\VICON\USERDATA\INSTALL\rory3\rory3.ASF
:FULLY-SPECIFIED
:DEGREES
432
root 0.517908 17.2763 17.8702 607.066 -72.3265 -68.504
lowerback -0.860402 -0.4889 -1.38986
upperback -14.891 -1.26791 -6.08777
thorax -16.268 -0.823878 -6.04118
lowerneck -19.8866 1.7424 -7.99056
upperneck -15.4266 4.39911 9.94077
head -1.89536 2.27247 4.61521
rclavicle 3.12092e-014 6.08281e-014
rhumerus 86.3504 -25.9907 -34.5646
rradius 21.5536
rwrist 30.0366
rhand -32.6741 -263.957
rfingers 7.12502
rthumb 174.1 -54.0593
lclavicle 3.12092e-014 6.08281e-014
lhumerus 64.4651 25.2458 -7.33656
lradius 34.0229
lwrist 37.5624
lhand -49.3427 -621.693
lfingers 7.12502
lthumb -21.9581 -69.5333
rfemur -59.8988 -21.2986 8.27523
rtibia 57.557
rfoot -5.30508 -20.8556
rtoes -24.8684
lfemur -47.8326 15.9529 27.8353
ltibia 30.3356
lfoot -16.473 32.8047
ltoes -2.09279
433
root 0.56205 17.3198 18.0797 609.464 -71.0055 -71.0744
lowerback -0.53351 -0.589313 -2.41013
upperback -14.6805 -1.50077 -6.32853
thorax -16.2195 -0.818457 -5.70492
lowerneck -20.5903 1.82752 -7.64181
upperneck -15.2415 4.44075 9.77303
head -1.74142 2.28315 4.51922
rclavicle -1.19271e-013 2.42517e-014
rhumerus 86.8774 -26.5895 -35.0696
rradius 21.3428
rwrist 30.7526
rhand -32.9259 -263.979
rfingers 7.12502
rthumb 173.857 -54.0877
lclavicle -1.19271e-013 2.42517e-014
lhumerus 63.9765 25.7493 -7.79509
lradius 34.0453
lwrist 38.0716
lhand -49.2972 -617.706
lfingers 7.12502
lthumb -21.9144 -73.5154
rfemur -58.2767 -20.9057 8.2492
rtibia 55.6639
rfoot -5.76734 -20.6928
rtoes -22.9537
lfemur -46.9496 15.4443 31.0572
ltibia 29.6208
lfoot -24.7731 30.782
ltoes 10.3406
434
root 0.562974 17.3051 18.2552 611.822 -69.4878 -73.6587
lowerback -0.222847 -0.677404 -3.48432
upperback -14.4392 -1.72823 -6.63743
thorax -16.1236 -0.810807 -5.41571
lowerneck -21.6262 1.80698 -7.54801
upperneck -14.7049 4.39291 9.83304
head -1.43579 2.27759 4.54243
rclavicle -5.64548e-014 -7.55382e-014
rhumerus 87.4922 -27.2012 -35.2624
rradius 20.8845
rwrist 31.1133
rhand -33.5167 -264.449
rfingers 7.12502
rthumb 173.287 -54.5751
lclavicle -5.64548e-014 -7.55382e-014
lhumerus 63.9455 26.4221 -7.34524
lradius 33.9184
lwrist 37.7865
lhand -49.8546 -611.115
lfingers 7.12502
lthumb -22.4495 -80.1699
rfemur -56.0987 -20.4607 8.10405
rtibia 53.2045
rfoot -6.33084 -20.6673
rtoes -20.8392
lfemur -47.2455 16.5011 32.2902
ltibia 29.2903
lfoot -21.5648 33.6177
ltoes 5.38265
435
root 0.580328 17.2965 18.4493 613.952 -68.2432 -76.0091
lowerback 0.100799 -0.808467 -4.22764
upperback -14.2033 -1.97837 -6.89225
thorax -16.0492 -0.849993 -5.24899
lowerneck -22.84 1.94155 -7.07859
upperneck -13.907 4.43948 9.62199
head -1.03043 2.31203 4.42492
rclavicle 2.22639e-014 3.02153e-014
rhumerus 87.4928 -27.8935 -34.1938
rradius 20.7005
rwrist 30.2425
rhand -33.7558 -264.607
rfingers 7.12502
rthumb 173.056 -54.7414
lclavicle 2.22639e-014 3.02153e-014
lhumerus 64.3444 27.2794 -6.34281
lradius 33.6529
lwrist 36.8964
lhand -49.9738 -608.838
lfingers 7.12502
lthumb -22.5639 -82.461
rfemur -53.7573 -20.0409 8.15121
rtibia 50.6044
rfoot -5.79419 -20.9103
rtoes -21.8181
lfemur -47.2541 17.1451 34.2832
ltibia 28.7395
lfoot -20.5438 35.6283
ltoes 6.3461
